
<region>
sample=..\Samples\f\d3_f_rr6.wav
lokey=38
hikey=38
seq_length=12
seq_position=6
pitch_keycenter=38

<region>
sample=..\Samples\f\d3_f_rr5.wav
lokey=38
hikey=38
seq_length=12
seq_position=5
pitch_keycenter=38

<region>
sample=..\Samples\f\d3_f_rr4.wav
lokey=38
hikey=38
seq_length=12
seq_position=4
pitch_keycenter=38

<region>
sample=..\Samples\f\d3_f_rr3.wav
lokey=38
hikey=38
seq_length=12
seq_position=3
pitch_keycenter=38

<region>
sample=..\Samples\f\d3_f_rr2.wav
lokey=38
hikey=38
seq_length=12
seq_position=2
pitch_keycenter=38

<region>
sample=..\Samples\f\d3_f_rr1.wav
lokey=38
hikey=38
seq_length=12
pitch_keycenter=38

<region>
sample=..\Samples\f\d3_f_rr6.wav
lokey=38
hikey=38
seq_length=12
seq_position=12
pitch_keycenter=38

<region>
sample=..\Samples\f\d3_f_rr5.wav
lokey=38
hikey=38
seq_length=12
seq_position=11
pitch_keycenter=38

<region>
sample=..\Samples\f\d3_f_rr4.wav
lokey=38
hikey=38
seq_length=12
seq_position=10
pitch_keycenter=38

<region>
sample=..\Samples\f\d3_f_rr3.wav
lokey=38
hikey=38
seq_length=12
seq_position=9
pitch_keycenter=38

<region>
sample=..\Samples\f\d3_f_rr2.wav
lokey=38
hikey=38
seq_length=12
seq_position=8
pitch_keycenter=38

<region>
sample=..\Samples\f\d3_f_rr1.wav
lokey=38
hikey=38
seq_length=12
seq_position=7
pitch_keycenter=38

<region>
sample=..\Samples\f\eb3_f_rr6.wav
lokey=39
hikey=39
seq_length=12
seq_position=6
pitch_keycenter=39

<region>
sample=..\Samples\f\eb3_f_rr5.wav
lokey=39
hikey=39
seq_length=12
seq_position=5
pitch_keycenter=39

<region>
sample=..\Samples\f\eb3_f_rr4.wav
lokey=39
hikey=39
seq_length=12
seq_position=4
pitch_keycenter=39

<region>
sample=..\Samples\f\eb3_f_rr3.wav
lokey=39
hikey=39
seq_length=12
seq_position=3
pitch_keycenter=39

<region>
sample=..\Samples\f\eb3_f_rr2.wav
lokey=39
hikey=39
seq_length=12
seq_position=2
pitch_keycenter=39

<region>
sample=..\Samples\f\eb3_f_rr1.wav
lokey=39
hikey=39
seq_length=12
pitch_keycenter=39

<region>
sample=..\Samples\f\eb3_f_rr6.wav
lokey=39
hikey=39
seq_length=12
seq_position=12
pitch_keycenter=39

<region>
sample=..\Samples\f\eb3_f_rr5.wav
lokey=39
hikey=39
seq_length=12
seq_position=11
pitch_keycenter=39

<region>
sample=..\Samples\f\eb3_f_rr4.wav
lokey=39
hikey=39
seq_length=12
seq_position=10
pitch_keycenter=39

<region>
sample=..\Samples\f\eb3_f_rr3.wav
lokey=39
hikey=39
seq_length=12
seq_position=9
pitch_keycenter=39

<region>
sample=..\Samples\f\eb3_f_rr2.wav
lokey=39
hikey=39
seq_length=12
seq_position=8
pitch_keycenter=39

<region>
sample=..\Samples\f\eb3_f_rr1.wav
lokey=39
hikey=39
seq_length=12
seq_position=7
pitch_keycenter=39

<region>
sample=..\Samples\f\e3_f_rr6.wav
lokey=40
hikey=40
seq_length=12
seq_position=6
pitch_keycenter=40

<region>
sample=..\Samples\f\e3_f_rr5.wav
lokey=40
hikey=40
seq_length=12
seq_position=5
pitch_keycenter=40

<region>
sample=..\Samples\f\e3_f_rr4.wav
lokey=40
hikey=40
seq_length=12
seq_position=4
pitch_keycenter=40

<region>
sample=..\Samples\f\e3_f_rr3.wav
lokey=40
hikey=40
seq_length=12
seq_position=3
pitch_keycenter=40

<region>
sample=..\Samples\f\e3_f_rr2.wav
lokey=40
hikey=40
seq_length=12
seq_position=2
pitch_keycenter=40

<region>
sample=..\Samples\f\e3_f_rr1.wav
lokey=40
hikey=40
seq_length=12
pitch_keycenter=40

<region>
sample=..\Samples\f\e3_f_rr6.wav
lokey=40
hikey=40
seq_length=12
seq_position=12
pitch_keycenter=40

<region>
sample=..\Samples\f\e3_f_rr5.wav
lokey=40
hikey=40
seq_length=12
seq_position=11
pitch_keycenter=40

<region>
sample=..\Samples\f\e3_f_rr4.wav
lokey=40
hikey=40
seq_length=12
seq_position=10
pitch_keycenter=40

<region>
sample=..\Samples\f\e3_f_rr3.wav
lokey=40
hikey=40
seq_length=12
seq_position=9
pitch_keycenter=40

<region>
sample=..\Samples\f\e3_f_rr2.wav
lokey=40
hikey=40
seq_length=12
seq_position=8
pitch_keycenter=40

<region>
sample=..\Samples\f\e3_f_rr1.wav
lokey=40
hikey=40
seq_length=12
seq_position=7
pitch_keycenter=40

<region>
sample=..\Samples\f\f3_f_rr6.wav
lokey=41
hikey=41
seq_length=12
seq_position=6
pitch_keycenter=41

<region>
sample=..\Samples\f\f3_f_rr5.wav
lokey=41
hikey=41
seq_length=12
seq_position=5
pitch_keycenter=41

<region>
sample=..\Samples\f\f3_f_rr4.wav
lokey=41
hikey=41
seq_length=12
seq_position=4
pitch_keycenter=41

<region>
sample=..\Samples\f\f3_f_rr3.wav
lokey=41
hikey=41
seq_length=12
seq_position=3
pitch_keycenter=41

<region>
sample=..\Samples\f\f3_f_rr2.wav
lokey=41
hikey=41
seq_length=12
seq_position=2
pitch_keycenter=41

<region>
sample=..\Samples\f\f3_f_rr1.wav
lokey=41
hikey=41
seq_length=12
pitch_keycenter=41

<region>
sample=..\Samples\f\f3_f_rr6.wav
lokey=41
hikey=41
seq_length=12
seq_position=12
pitch_keycenter=41

<region>
sample=..\Samples\f\f3_f_rr5.wav
lokey=41
hikey=41
seq_length=12
seq_position=11
pitch_keycenter=41

<region>
sample=..\Samples\f\f3_f_rr4.wav
lokey=41
hikey=41
seq_length=12
seq_position=10
pitch_keycenter=41

<region>
sample=..\Samples\f\f3_f_rr3.wav
lokey=41
hikey=41
seq_length=12
seq_position=9
pitch_keycenter=41

<region>
sample=..\Samples\f\f3_f_rr2.wav
lokey=41
hikey=41
seq_length=12
seq_position=8
pitch_keycenter=41

<region>
sample=..\Samples\f\f3_f_rr1.wav
lokey=41
hikey=41
seq_length=12
seq_position=7
pitch_keycenter=41

<region>
sample=..\Samples\f\gb3_f_rr6.wav
lokey=42
hikey=42
seq_length=12
seq_position=6
pitch_keycenter=42

<region>
sample=..\Samples\f\gb3_f_rr5.wav
lokey=42
hikey=42
seq_length=12
seq_position=5
pitch_keycenter=42

<region>
sample=..\Samples\f\gb3_f_rr4.wav
lokey=42
hikey=42
seq_length=12
seq_position=4
pitch_keycenter=42

<region>
sample=..\Samples\f\gb3_f_rr3.wav
lokey=42
hikey=42
seq_length=12
seq_position=3
pitch_keycenter=42

<region>
sample=..\Samples\f\gb3_f_rr2.wav
lokey=42
hikey=42
seq_length=12
seq_position=2
pitch_keycenter=42

<region>
sample=..\Samples\f\gb3_f_rr1.wav
lokey=42
hikey=42
seq_length=12
pitch_keycenter=42

<region>
sample=..\Samples\f\gb3_f_rr6.wav
lokey=42
hikey=42
seq_length=12
seq_position=12
pitch_keycenter=42

<region>
sample=..\Samples\f\gb3_f_rr5.wav
lokey=42
hikey=42
seq_length=12
seq_position=11
pitch_keycenter=42

<region>
sample=..\Samples\f\gb3_f_rr4.wav
lokey=42
hikey=42
seq_length=12
seq_position=10
pitch_keycenter=42

<region>
sample=..\Samples\f\gb3_f_rr3.wav
lokey=42
hikey=42
seq_length=12
seq_position=9
pitch_keycenter=42

<region>
sample=..\Samples\f\gb3_f_rr2.wav
lokey=42
hikey=42
seq_length=12
seq_position=8
pitch_keycenter=42

<region>
sample=..\Samples\f\gb3_f_rr1.wav
lokey=42
hikey=42
seq_length=12
seq_position=7
pitch_keycenter=42

<region>
sample=..\Samples\f\g3_f_rr6.wav
lokey=43
hikey=43
seq_length=12
seq_position=6
pitch_keycenter=43

<region>
sample=..\Samples\f\g3_f_rr5.wav
lokey=43
hikey=43
seq_length=12
seq_position=5
pitch_keycenter=43

<region>
sample=..\Samples\f\g3_f_rr4.wav
lokey=43
hikey=43
seq_length=12
seq_position=4
pitch_keycenter=43

<region>
sample=..\Samples\f\g3_f_rr3.wav
lokey=43
hikey=43
seq_length=12
seq_position=3
pitch_keycenter=43

<region>
sample=..\Samples\f\g3_f_rr2.wav
lokey=43
hikey=43
seq_length=12
seq_position=2
pitch_keycenter=43

<region>
sample=..\Samples\f\g3_f_rr1.wav
lokey=43
hikey=43
seq_length=12
pitch_keycenter=43

<region>
sample=..\Samples\f\g3_f_rr6.wav
lokey=43
hikey=43
seq_length=12
seq_position=12
pitch_keycenter=43

<region>
sample=..\Samples\f\g3_f_rr5.wav
lokey=43
hikey=43
seq_length=12
seq_position=11
pitch_keycenter=43

<region>
sample=..\Samples\f\g3_f_rr4.wav
lokey=43
hikey=43
seq_length=12
seq_position=10
pitch_keycenter=43

<region>
sample=..\Samples\f\g3_f_rr3.wav
lokey=43
hikey=43
seq_length=12
seq_position=9
pitch_keycenter=43

<region>
sample=..\Samples\f\g3_f_rr2.wav
lokey=43
hikey=43
seq_length=12
seq_position=8
pitch_keycenter=43

<region>
sample=..\Samples\f\g3_f_rr1.wav
lokey=43
hikey=43
seq_length=12
seq_position=7
pitch_keycenter=43

<region>
sample=..\Samples\f\ab3_f_rr6.wav
lokey=44
hikey=44
seq_length=12
seq_position=6
pitch_keycenter=44

<region>
sample=..\Samples\f\ab3_f_rr5.wav
lokey=44
hikey=44
seq_length=12
seq_position=5
pitch_keycenter=44

<region>
sample=..\Samples\f\ab3_f_rr4.wav
lokey=44
hikey=44
seq_length=12
seq_position=4
pitch_keycenter=44

<region>
sample=..\Samples\f\ab3_f_rr3.wav
lokey=44
hikey=44
seq_length=12
seq_position=3
pitch_keycenter=44

<region>
sample=..\Samples\f\ab3_f_rr2.wav
lokey=44
hikey=44
seq_length=12
seq_position=2
pitch_keycenter=44

<region>
sample=..\Samples\f\ab3_f_rr1.wav
lokey=44
hikey=44
seq_length=12
pitch_keycenter=44

<region>
sample=..\Samples\f\ab3_f_rr6.wav
lokey=44
hikey=44
seq_length=12
seq_position=12
pitch_keycenter=44

<region>
sample=..\Samples\f\ab3_f_rr5.wav
lokey=44
hikey=44
seq_length=12
seq_position=11
pitch_keycenter=44

<region>
sample=..\Samples\f\ab3_f_rr4.wav
lokey=44
hikey=44
seq_length=12
seq_position=10
pitch_keycenter=44

<region>
sample=..\Samples\f\ab3_f_rr3.wav
lokey=44
hikey=44
seq_length=12
seq_position=9
pitch_keycenter=44

<region>
sample=..\Samples\f\ab3_f_rr2.wav
lokey=44
hikey=44
seq_length=12
seq_position=8
pitch_keycenter=44

<region>
sample=..\Samples\f\ab3_f_rr1.wav
lokey=44
hikey=44
seq_length=12
seq_position=7
pitch_keycenter=44

<region>
sample=..\Samples\f\a3_f_rr6.wav
lokey=45
hikey=45
seq_length=12
seq_position=6
pitch_keycenter=45

<region>
sample=..\Samples\f\a3_f_rr5.wav
lokey=45
hikey=45
seq_length=12
seq_position=5
pitch_keycenter=45

<region>
sample=..\Samples\f\a3_f_rr4.wav
lokey=45
hikey=45
seq_length=12
seq_position=4
pitch_keycenter=45

<region>
sample=..\Samples\f\a3_f_rr3.wav
lokey=45
hikey=45
seq_length=12
seq_position=3
pitch_keycenter=45

<region>
sample=..\Samples\f\a3_f_rr2.wav
lokey=45
hikey=45
seq_length=12
seq_position=2
pitch_keycenter=45

<region>
sample=..\Samples\f\a3_f_rr1.wav
lokey=45
hikey=45
seq_length=12
pitch_keycenter=45

<region>
sample=..\Samples\f\a3_f_rr6.wav
lokey=45
hikey=45
seq_length=12
seq_position=12
pitch_keycenter=45

<region>
sample=..\Samples\f\a3_f_rr5.wav
lokey=45
hikey=45
seq_length=12
seq_position=11
pitch_keycenter=45

<region>
sample=..\Samples\f\a3_f_rr4.wav
lokey=45
hikey=45
seq_length=12
seq_position=10
pitch_keycenter=45

<region>
sample=..\Samples\f\a3_f_rr3.wav
lokey=45
hikey=45
seq_length=12
seq_position=9
pitch_keycenter=45

<region>
sample=..\Samples\f\a3_f_rr2.wav
lokey=45
hikey=45
seq_length=12
seq_position=8
pitch_keycenter=45

<region>
sample=..\Samples\f\a3_f_rr1.wav
lokey=45
hikey=45
seq_length=12
seq_position=7
pitch_keycenter=45

<region>
sample=..\Samples\f\bb3_f_rr6.wav
lokey=46
hikey=46
seq_length=12
seq_position=6
pitch_keycenter=46

<region>
sample=..\Samples\f\bb3_f_rr5.wav
lokey=46
hikey=46
seq_length=12
seq_position=5
pitch_keycenter=46

<region>
sample=..\Samples\f\bb3_f_rr4.wav
lokey=46
hikey=46
seq_length=12
seq_position=4
pitch_keycenter=46

<region>
sample=..\Samples\f\bb3_f_rr3.wav
lokey=46
hikey=46
seq_length=12
seq_position=3
pitch_keycenter=46

<region>
sample=..\Samples\f\bb3_f_rr2.wav
lokey=46
hikey=46
seq_length=12
seq_position=2
pitch_keycenter=46

<region>
sample=..\Samples\f\bb3_f_rr1.wav
lokey=46
hikey=46
seq_length=12
pitch_keycenter=46

<region>
sample=..\Samples\f\bb3_f_rr6.wav
lokey=46
hikey=46
seq_length=12
seq_position=12
pitch_keycenter=46

<region>
sample=..\Samples\f\bb3_f_rr5.wav
lokey=46
hikey=46
seq_length=12
seq_position=11
pitch_keycenter=46

<region>
sample=..\Samples\f\bb3_f_rr4.wav
lokey=46
hikey=46
seq_length=12
seq_position=10
pitch_keycenter=46

<region>
sample=..\Samples\f\bb3_f_rr3.wav
lokey=46
hikey=46
seq_length=12
seq_position=9
pitch_keycenter=46

<region>
sample=..\Samples\f\bb3_f_rr2.wav
lokey=46
hikey=46
seq_length=12
seq_position=8
pitch_keycenter=46

<region>
sample=..\Samples\f\bb3_f_rr1.wav
lokey=46
hikey=46
seq_length=12
seq_position=7
pitch_keycenter=46

<region>
sample=..\Samples\f\b3_f_rr6.wav
lokey=47
hikey=47
seq_length=12
seq_position=6
pitch_keycenter=47

<region>
sample=..\Samples\f\b3_f_rr5.wav
lokey=47
hikey=47
seq_length=12
seq_position=5
pitch_keycenter=47

<region>
sample=..\Samples\f\b3_f_rr4.wav
lokey=47
hikey=47
seq_length=12
seq_position=4
pitch_keycenter=47

<region>
sample=..\Samples\f\b3_f_rr3.wav
lokey=47
hikey=47
seq_length=12
seq_position=3
pitch_keycenter=47

<region>
sample=..\Samples\f\b3_f_rr2.wav
lokey=47
hikey=47
seq_length=12
seq_position=2
pitch_keycenter=47

<region>
sample=..\Samples\f\b3_f_rr1.wav
lokey=47
hikey=47
seq_length=12
pitch_keycenter=47

<region>
sample=..\Samples\f\b3_f_rr6.wav
lokey=47
hikey=47
seq_length=12
seq_position=12
pitch_keycenter=47

<region>
sample=..\Samples\f\b3_f_rr5.wav
lokey=47
hikey=47
seq_length=12
seq_position=11
pitch_keycenter=47

<region>
sample=..\Samples\f\b3_f_rr4.wav
lokey=47
hikey=47
seq_length=12
seq_position=10
pitch_keycenter=47

<region>
sample=..\Samples\f\b3_f_rr3.wav
lokey=47
hikey=47
seq_length=12
seq_position=9
pitch_keycenter=47

<region>
sample=..\Samples\f\b3_f_rr2.wav
lokey=47
hikey=47
seq_length=12
seq_position=8
pitch_keycenter=47

<region>
sample=..\Samples\f\b3_f_rr1.wav
lokey=47
hikey=47
seq_length=12
seq_position=7
pitch_keycenter=47

<region>
sample=..\Samples\f\c4_f_rr6.wav
lokey=48
hikey=48
seq_length=12
seq_position=6
pitch_keycenter=48

<region>
sample=..\Samples\f\c4_f_rr5.wav
lokey=48
hikey=48
seq_length=12
seq_position=5
pitch_keycenter=48

<region>
sample=..\Samples\f\c4_f_rr4.wav
lokey=48
hikey=48
seq_length=12
seq_position=4
pitch_keycenter=48

<region>
sample=..\Samples\f\c4_f_rr3.wav
lokey=48
hikey=48
seq_length=12
seq_position=3
pitch_keycenter=48

<region>
sample=..\Samples\f\c4_f_rr2.wav
lokey=48
hikey=48
seq_length=12
seq_position=2
pitch_keycenter=48

<region>
sample=..\Samples\f\c4_f_rr1.wav
lokey=48
hikey=48
seq_length=12
pitch_keycenter=48

<region>
sample=..\Samples\f\c4_f_rr6.wav
lokey=48
hikey=48
seq_length=12
seq_position=12
pitch_keycenter=48

<region>
sample=..\Samples\f\c4_f_rr5.wav
lokey=48
hikey=48
seq_length=12
seq_position=11
pitch_keycenter=48

<region>
sample=..\Samples\f\c4_f_rr4.wav
lokey=48
hikey=48
seq_length=12
seq_position=10
pitch_keycenter=48

<region>
sample=..\Samples\f\c4_f_rr3.wav
lokey=48
hikey=48
seq_length=12
seq_position=9
pitch_keycenter=48

<region>
sample=..\Samples\f\c4_f_rr2.wav
lokey=48
hikey=48
seq_length=12
seq_position=8
pitch_keycenter=48

<region>
sample=..\Samples\f\c4_f_rr1.wav
lokey=48
hikey=48
seq_length=12
seq_position=7
pitch_keycenter=48

<region>
sample=..\Samples\f\db4_f_rr6.wav
lokey=49
hikey=49
seq_length=12
seq_position=6
pitch_keycenter=49

<region>
sample=..\Samples\f\db4_f_rr5.wav
lokey=49
hikey=49
seq_length=12
seq_position=5
pitch_keycenter=49

<region>
sample=..\Samples\f\db4_f_rr4.wav
lokey=49
hikey=49
seq_length=12
seq_position=4
pitch_keycenter=49

<region>
sample=..\Samples\f\db4_f_rr3.wav
lokey=49
hikey=49
seq_length=12
seq_position=3
pitch_keycenter=49

<region>
sample=..\Samples\f\db4_f_rr2.wav
lokey=49
hikey=49
seq_length=12
seq_position=2
pitch_keycenter=49

<region>
sample=..\Samples\f\db4_f_rr1.wav
lokey=49
hikey=49
seq_length=12
pitch_keycenter=49

<region>
sample=..\Samples\f\db4_f_rr6.wav
lokey=49
hikey=49
seq_length=12
seq_position=12
pitch_keycenter=49

<region>
sample=..\Samples\f\db4_f_rr5.wav
lokey=49
hikey=49
seq_length=12
seq_position=11
pitch_keycenter=49

<region>
sample=..\Samples\f\db4_f_rr4.wav
lokey=49
hikey=49
seq_length=12
seq_position=10
pitch_keycenter=49

<region>
sample=..\Samples\f\db4_f_rr3.wav
lokey=49
hikey=49
seq_length=12
seq_position=9
pitch_keycenter=49

<region>
sample=..\Samples\f\db4_f_rr2.wav
lokey=49
hikey=49
seq_length=12
seq_position=8
pitch_keycenter=49

<region>
sample=..\Samples\f\db4_f_rr1.wav
lokey=49
hikey=49
seq_length=12
seq_position=7
pitch_keycenter=49

<region>
sample=..\Samples\f\d4_f_rr6.wav
lokey=50
hikey=50
seq_length=12
seq_position=6
pitch_keycenter=50

<region>
sample=..\Samples\f\d4_f_rr5.wav
lokey=50
hikey=50
seq_length=12
seq_position=5
pitch_keycenter=50

<region>
sample=..\Samples\f\d4_f_rr4.wav
lokey=50
hikey=50
seq_length=12
seq_position=4
pitch_keycenter=50

<region>
sample=..\Samples\f\d4_f_rr3.wav
lokey=50
hikey=50
seq_length=12
seq_position=3
pitch_keycenter=50

<region>
sample=..\Samples\f\d4_f_rr2.wav
lokey=50
hikey=50
seq_length=12
seq_position=2
pitch_keycenter=50

<region>
sample=..\Samples\f\d4_f_rr1.wav
lokey=50
hikey=50
seq_length=12
pitch_keycenter=50

<region>
sample=..\Samples\f\d4_f_rr6.wav
lokey=50
hikey=50
seq_length=12
seq_position=12
pitch_keycenter=50

<region>
sample=..\Samples\f\d4_f_rr5.wav
lokey=50
hikey=50
seq_length=12
seq_position=11
pitch_keycenter=50

<region>
sample=..\Samples\f\d4_f_rr4.wav
lokey=50
hikey=50
seq_length=12
seq_position=10
pitch_keycenter=50

<region>
sample=..\Samples\f\d4_f_rr3.wav
lokey=50
hikey=50
seq_length=12
seq_position=9
pitch_keycenter=50

<region>
sample=..\Samples\f\d4_f_rr2.wav
lokey=50
hikey=50
seq_length=12
seq_position=8
pitch_keycenter=50

<region>
sample=..\Samples\f\d4_f_rr1.wav
lokey=50
hikey=50
seq_length=12
seq_position=7
pitch_keycenter=50

<region>
sample=..\Samples\f\eb4_f_rr6.wav
lokey=51
hikey=51
seq_length=12
seq_position=6
pitch_keycenter=51

<region>
sample=..\Samples\f\eb4_f_rr5.wav
lokey=51
hikey=51
seq_length=12
seq_position=5
pitch_keycenter=51

<region>
sample=..\Samples\f\eb4_f_rr4.wav
lokey=51
hikey=51
seq_length=12
seq_position=4
pitch_keycenter=51

<region>
sample=..\Samples\f\eb4_f_rr3.wav
lokey=51
hikey=51
seq_length=12
seq_position=3
pitch_keycenter=51

<region>
sample=..\Samples\f\eb4_f_rr2.wav
lokey=51
hikey=51
seq_length=12
seq_position=2
pitch_keycenter=51

<region>
sample=..\Samples\f\eb4_f_rr1.wav
lokey=51
hikey=51
seq_length=12
pitch_keycenter=51

<region>
sample=..\Samples\f\eb4_f_rr6.wav
lokey=51
hikey=51
seq_length=12
seq_position=12
pitch_keycenter=51

<region>
sample=..\Samples\f\eb4_f_rr5.wav
lokey=51
hikey=51
seq_length=12
seq_position=11
pitch_keycenter=51

<region>
sample=..\Samples\f\eb4_f_rr4.wav
lokey=51
hikey=51
seq_length=12
seq_position=10
pitch_keycenter=51

<region>
sample=..\Samples\f\eb4_f_rr3.wav
lokey=51
hikey=51
seq_length=12
seq_position=9
pitch_keycenter=51

<region>
sample=..\Samples\f\eb4_f_rr2.wav
lokey=51
hikey=51
seq_length=12
seq_position=8
pitch_keycenter=51

<region>
sample=..\Samples\f\eb4_f_rr1.wav
lokey=51
hikey=51
seq_length=12
seq_position=7
pitch_keycenter=51

<region>
sample=..\Samples\f\e4_f_rr6.wav
lokey=52
hikey=52
seq_length=12
seq_position=6
pitch_keycenter=52

<region>
sample=..\Samples\f\e4_f_rr5.wav
lokey=52
hikey=52
seq_length=12
seq_position=5
pitch_keycenter=52

<region>
sample=..\Samples\f\e4_f_rr4.wav
lokey=52
hikey=52
seq_length=12
seq_position=4
pitch_keycenter=52

<region>
sample=..\Samples\f\e4_f_rr3.wav
lokey=52
hikey=52
seq_length=12
seq_position=3
pitch_keycenter=52

<region>
sample=..\Samples\f\e4_f_rr2.wav
lokey=52
hikey=52
seq_length=12
seq_position=2
pitch_keycenter=52

<region>
sample=..\Samples\f\e4_f_rr1.wav
lokey=52
hikey=52
seq_length=12
pitch_keycenter=52

<region>
sample=..\Samples\f\e4_f_rr6.wav
lokey=52
hikey=52
seq_length=12
seq_position=12
pitch_keycenter=52

<region>
sample=..\Samples\f\e4_f_rr5.wav
lokey=52
hikey=52
seq_length=12
seq_position=11
pitch_keycenter=52

<region>
sample=..\Samples\f\e4_f_rr4.wav
lokey=52
hikey=52
seq_length=12
seq_position=10
pitch_keycenter=52

<region>
sample=..\Samples\f\e4_f_rr3.wav
lokey=52
hikey=52
seq_length=12
seq_position=9
pitch_keycenter=52

<region>
sample=..\Samples\f\e4_f_rr2.wav
lokey=52
hikey=52
seq_length=12
seq_position=8
pitch_keycenter=52

<region>
sample=..\Samples\f\e4_f_rr1.wav
lokey=52
hikey=52
seq_length=12
seq_position=7
pitch_keycenter=52

<region>
sample=..\Samples\f\f4_f_rr6.wav
lokey=53
hikey=53
seq_length=12
seq_position=6
pitch_keycenter=53

<region>
sample=..\Samples\f\f4_f_rr5.wav
lokey=53
hikey=53
seq_length=12
seq_position=5
pitch_keycenter=53

<region>
sample=..\Samples\f\f4_f_rr4.wav
lokey=53
hikey=53
seq_length=12
seq_position=4
pitch_keycenter=53

<region>
sample=..\Samples\f\f4_f_rr3.wav
lokey=53
hikey=53
seq_length=12
seq_position=3
pitch_keycenter=53

<region>
sample=..\Samples\f\f4_f_rr2.wav
lokey=53
hikey=53
seq_length=12
seq_position=2
pitch_keycenter=53

<region>
sample=..\Samples\f\f4_f_rr1.wav
lokey=53
hikey=53
seq_length=12
pitch_keycenter=53

<region>
sample=..\Samples\f\f4_f_rr6.wav
lokey=53
hikey=53
seq_length=12
seq_position=12
pitch_keycenter=53

<region>
sample=..\Samples\f\f4_f_rr5.wav
lokey=53
hikey=53
seq_length=12
seq_position=11
pitch_keycenter=53

<region>
sample=..\Samples\f\f4_f_rr4.wav
lokey=53
hikey=53
seq_length=12
seq_position=10
pitch_keycenter=53

<region>
sample=..\Samples\f\f4_f_rr3.wav
lokey=53
hikey=53
seq_length=12
seq_position=9
pitch_keycenter=53

<region>
sample=..\Samples\f\f4_f_rr2.wav
lokey=53
hikey=53
seq_length=12
seq_position=8
pitch_keycenter=53

<region>
sample=..\Samples\f\f4_f_rr1.wav
lokey=53
hikey=53
seq_length=12
seq_position=7
pitch_keycenter=53

<region>
sample=..\Samples\f\gb4_f_rr6.wav
lokey=54
hikey=54
seq_length=12
seq_position=6
pitch_keycenter=54

<region>
sample=..\Samples\f\gb4_f_rr5.wav
lokey=54
hikey=54
seq_length=12
seq_position=5
pitch_keycenter=54

<region>
sample=..\Samples\f\gb4_f_rr4.wav
lokey=54
hikey=54
seq_length=12
seq_position=4
pitch_keycenter=54

<region>
sample=..\Samples\f\gb4_f_rr3.wav
lokey=54
hikey=54
seq_length=12
seq_position=3
pitch_keycenter=54

<region>
sample=..\Samples\f\gb4_f_rr2.wav
lokey=54
hikey=54
seq_length=12
seq_position=2
pitch_keycenter=54

<region>
sample=..\Samples\f\gb4_f_rr1.wav
lokey=54
hikey=54
seq_length=12
pitch_keycenter=54

<region>
sample=..\Samples\f\gb4_f_rr6.wav
lokey=54
hikey=54
seq_length=12
seq_position=12
pitch_keycenter=54

<region>
sample=..\Samples\f\gb4_f_rr5.wav
lokey=54
hikey=54
seq_length=12
seq_position=11
pitch_keycenter=54

<region>
sample=..\Samples\f\gb4_f_rr4.wav
lokey=54
hikey=54
seq_length=12
seq_position=10
pitch_keycenter=54

<region>
sample=..\Samples\f\gb4_f_rr3.wav
lokey=54
hikey=54
seq_length=12
seq_position=9
pitch_keycenter=54

<region>
sample=..\Samples\f\gb4_f_rr2.wav
lokey=54
hikey=54
seq_length=12
seq_position=8
pitch_keycenter=54

<region>
sample=..\Samples\f\gb4_f_rr1.wav
lokey=54
hikey=54
seq_length=12
seq_position=7
pitch_keycenter=54

<region>
sample=..\Samples\f\g4_f_rr6.wav
lokey=55
hikey=55
seq_length=12
seq_position=6
pitch_keycenter=55

<region>
sample=..\Samples\f\g4_f_rr5.wav
lokey=55
hikey=55
seq_length=12
seq_position=5
pitch_keycenter=55

<region>
sample=..\Samples\f\g4_f_rr4.wav
lokey=55
hikey=55
seq_length=12
seq_position=4
pitch_keycenter=55

<region>
sample=..\Samples\f\g4_f_rr3.wav
lokey=55
hikey=55
seq_length=12
seq_position=3
pitch_keycenter=55

<region>
sample=..\Samples\f\g4_f_rr2.wav
lokey=55
hikey=55
seq_length=12
seq_position=2
pitch_keycenter=55

<region>
sample=..\Samples\f\g4_f_rr1.wav
lokey=55
hikey=55
seq_length=12
pitch_keycenter=55

<region>
sample=..\Samples\f\g4_f_rr6.wav
lokey=55
hikey=55
seq_length=12
seq_position=12
pitch_keycenter=55

<region>
sample=..\Samples\f\g4_f_rr5.wav
lokey=55
hikey=55
seq_length=12
seq_position=11
pitch_keycenter=55

<region>
sample=..\Samples\f\g4_f_rr4.wav
lokey=55
hikey=55
seq_length=12
seq_position=10
pitch_keycenter=55

<region>
sample=..\Samples\f\g4_f_rr3.wav
lokey=55
hikey=55
seq_length=12
seq_position=9
pitch_keycenter=55

<region>
sample=..\Samples\f\g4_f_rr2.wav
lokey=55
hikey=55
seq_length=12
seq_position=8
pitch_keycenter=55

<region>
sample=..\Samples\f\g4_f_rr1.wav
lokey=55
hikey=55
seq_length=12
seq_position=7
pitch_keycenter=55

<region>
sample=..\Samples\f\ab4_f_rr6.wav
lokey=56
hikey=56
seq_length=12
seq_position=6
pitch_keycenter=56

<region>
sample=..\Samples\f\ab4_f_rr5.wav
lokey=56
hikey=56
seq_length=12
seq_position=5
pitch_keycenter=56

<region>
sample=..\Samples\f\ab4_f_rr4.wav
lokey=56
hikey=56
seq_length=12
seq_position=4
pitch_keycenter=56

<region>
sample=..\Samples\f\ab4_f_rr3.wav
lokey=56
hikey=56
seq_length=12
seq_position=3
pitch_keycenter=56

<region>
sample=..\Samples\f\ab4_f_rr2.wav
lokey=56
hikey=56
seq_length=12
seq_position=2
pitch_keycenter=56

<region>
sample=..\Samples\f\ab4_f_rr1.wav
lokey=56
hikey=56
seq_length=12
pitch_keycenter=56

<region>
sample=..\Samples\f\ab4_f_rr6.wav
lokey=56
hikey=56
seq_length=12
seq_position=12
pitch_keycenter=56

<region>
sample=..\Samples\f\ab4_f_rr5.wav
lokey=56
hikey=56
seq_length=12
seq_position=11
pitch_keycenter=56

<region>
sample=..\Samples\f\ab4_f_rr4.wav
lokey=56
hikey=56
seq_length=12
seq_position=10
pitch_keycenter=56

<region>
sample=..\Samples\f\ab4_f_rr3.wav
lokey=56
hikey=56
seq_length=12
seq_position=9
pitch_keycenter=56

<region>
sample=..\Samples\f\ab4_f_rr2.wav
lokey=56
hikey=56
seq_length=12
seq_position=8
pitch_keycenter=56

<region>
sample=..\Samples\f\ab4_f_rr1.wav
lokey=56
hikey=56
seq_length=12
seq_position=7
pitch_keycenter=56

<region>
sample=..\Samples\f\a4_f_rr6.wav
lokey=57
hikey=57
seq_length=12
seq_position=6
pitch_keycenter=57

<region>
sample=..\Samples\f\a4_f_rr5.wav
lokey=57
hikey=57
seq_length=12
seq_position=5
pitch_keycenter=57

<region>
sample=..\Samples\f\a4_f_rr4.wav
lokey=57
hikey=57
seq_length=12
seq_position=4
pitch_keycenter=57

<region>
sample=..\Samples\f\a4_f_rr3.wav
lokey=57
hikey=57
seq_length=12
seq_position=3
pitch_keycenter=57

<region>
sample=..\Samples\f\a4_f_rr2.wav
lokey=57
hikey=57
seq_length=12
seq_position=2
pitch_keycenter=57

<region>
sample=..\Samples\f\a4_f_rr1.wav
lokey=57
hikey=57
seq_length=12
pitch_keycenter=57

<region>
sample=..\Samples\f\a4_f_rr6.wav
lokey=57
hikey=57
seq_length=12
seq_position=12
pitch_keycenter=57

<region>
sample=..\Samples\f\a4_f_rr5.wav
lokey=57
hikey=57
seq_length=12
seq_position=11
pitch_keycenter=57

<region>
sample=..\Samples\f\a4_f_rr4.wav
lokey=57
hikey=57
seq_length=12
seq_position=10
pitch_keycenter=57

<region>
sample=..\Samples\f\a4_f_rr3.wav
lokey=57
hikey=57
seq_length=12
seq_position=9
pitch_keycenter=57

<region>
sample=..\Samples\f\a4_f_rr2.wav
lokey=57
hikey=57
seq_length=12
seq_position=8
pitch_keycenter=57

<region>
sample=..\Samples\f\a4_f_rr1.wav
lokey=57
hikey=57
seq_length=12
seq_position=7
pitch_keycenter=57

<region>
sample=..\Samples\f\bb4_f_rr6.wav
lokey=58
hikey=58
seq_length=12
seq_position=6
pitch_keycenter=58

<region>
sample=..\Samples\f\bb4_f_rr5.wav
lokey=58
hikey=58
seq_length=12
seq_position=5
pitch_keycenter=58

<region>
sample=..\Samples\f\bb4_f_rr4.wav
lokey=58
hikey=58
seq_length=12
seq_position=4
pitch_keycenter=58

<region>
sample=..\Samples\f\bb4_f_rr3.wav
lokey=58
hikey=58
seq_length=12
seq_position=3
pitch_keycenter=58

<region>
sample=..\Samples\f\bb4_f_rr2.wav
lokey=58
hikey=58
seq_length=12
seq_position=2
pitch_keycenter=58

<region>
sample=..\Samples\f\bb4_f_rr1.wav
lokey=58
hikey=58
seq_length=12
pitch_keycenter=58

<region>
sample=..\Samples\f\bb4_f_rr6.wav
lokey=58
hikey=58
seq_length=12
seq_position=12
pitch_keycenter=58

<region>
sample=..\Samples\f\bb4_f_rr5.wav
lokey=58
hikey=58
seq_length=12
seq_position=11
pitch_keycenter=58

<region>
sample=..\Samples\f\bb4_f_rr4.wav
lokey=58
hikey=58
seq_length=12
seq_position=10
pitch_keycenter=58

<region>
sample=..\Samples\f\bb4_f_rr3.wav
lokey=58
hikey=58
seq_length=12
seq_position=9
pitch_keycenter=58

<region>
sample=..\Samples\f\bb4_f_rr2.wav
lokey=58
hikey=58
seq_length=12
seq_position=8
pitch_keycenter=58

<region>
sample=..\Samples\f\bb4_f_rr1.wav
lokey=58
hikey=58
seq_length=12
seq_position=7
pitch_keycenter=58

<region>
sample=..\Samples\f\b4_f_rr6.wav
lokey=59
hikey=59
seq_length=12
seq_position=6
pitch_keycenter=59

<region>
sample=..\Samples\f\b4_f_rr5.wav
lokey=59
hikey=59
seq_length=12
seq_position=5
pitch_keycenter=59

<region>
sample=..\Samples\f\b4_f_rr4.wav
lokey=59
hikey=59
seq_length=12
seq_position=4
pitch_keycenter=59

<region>
sample=..\Samples\f\b4_f_rr3.wav
lokey=59
hikey=59
seq_length=12
seq_position=3
pitch_keycenter=59

<region>
sample=..\Samples\f\b4_f_rr2.wav
lokey=59
hikey=59
seq_length=12
seq_position=2
pitch_keycenter=59

<region>
sample=..\Samples\f\b4_f_rr1.wav
lokey=59
hikey=59
seq_length=12
pitch_keycenter=59

<region>
sample=..\Samples\f\b4_f_rr6.wav
lokey=59
hikey=59
seq_length=12
seq_position=12
pitch_keycenter=59

<region>
sample=..\Samples\f\b4_f_rr5.wav
lokey=59
hikey=59
seq_length=12
seq_position=11
pitch_keycenter=59

<region>
sample=..\Samples\f\b4_f_rr4.wav
lokey=59
hikey=59
seq_length=12
seq_position=10
pitch_keycenter=59

<region>
sample=..\Samples\f\b4_f_rr3.wav
lokey=59
hikey=59
seq_length=12
seq_position=9
pitch_keycenter=59

<region>
sample=..\Samples\f\b4_f_rr2.wav
lokey=59
hikey=59
seq_length=12
seq_position=8
pitch_keycenter=59

<region>
sample=..\Samples\f\b4_f_rr1.wav
lokey=59
hikey=59
seq_length=12
seq_position=7
pitch_keycenter=59

<region>
sample=..\Samples\f\c5_f_rr6.wav
lokey=60
hikey=60
seq_length=12
seq_position=6

<region>
sample=..\Samples\f\c5_f_rr5.wav
lokey=60
hikey=60
seq_length=12
seq_position=5

<region>
sample=..\Samples\f\c5_f_rr4.wav
lokey=60
hikey=60
seq_length=12
seq_position=4

<region>
sample=..\Samples\f\c5_f_rr3.wav
lokey=60
hikey=60
seq_length=12
seq_position=3

<region>
sample=..\Samples\f\c5_f_rr2.wav
lokey=60
hikey=60
seq_length=12
seq_position=2

<region>
sample=..\Samples\f\c5_f_rr1.wav
lokey=60
hikey=60
seq_length=12

<region>
sample=..\Samples\f\c5_f_rr6.wav
lokey=60
hikey=60
seq_length=12
seq_position=12

<region>
sample=..\Samples\f\c5_f_rr5.wav
lokey=60
hikey=60
seq_length=12
seq_position=11

<region>
sample=..\Samples\f\c5_f_rr4.wav
lokey=60
hikey=60
seq_length=12
seq_position=10

<region>
sample=..\Samples\f\c5_f_rr3.wav
lokey=60
hikey=60
seq_length=12
seq_position=9

<region>
sample=..\Samples\f\c5_f_rr2.wav
lokey=60
hikey=60
seq_length=12
seq_position=8

<region>
sample=..\Samples\f\c5_f_rr1.wav
lokey=60
hikey=60
seq_length=12
seq_position=7

<region>
sample=..\Samples\f\db5_f_rr6.wav
lokey=61
hikey=61
seq_length=12
seq_position=6
pitch_keycenter=61

<region>
sample=..\Samples\f\db5_f_rr5.wav
lokey=61
hikey=61
seq_length=12
seq_position=5
pitch_keycenter=61

<region>
sample=..\Samples\f\db5_f_rr4.wav
lokey=61
hikey=61
seq_length=12
seq_position=4
pitch_keycenter=61

<region>
sample=..\Samples\f\db5_f_rr3.wav
lokey=61
hikey=61
seq_length=12
seq_position=3
pitch_keycenter=61

<region>
sample=..\Samples\f\db5_f_rr2.wav
lokey=61
hikey=61
seq_length=12
seq_position=2
pitch_keycenter=61

<region>
sample=..\Samples\f\db5_f_rr1.wav
lokey=61
hikey=61
seq_length=12
pitch_keycenter=61

<region>
sample=..\Samples\f\db5_f_rr6.wav
lokey=61
hikey=61
seq_length=12
seq_position=12
pitch_keycenter=61

<region>
sample=..\Samples\f\db5_f_rr5.wav
lokey=61
hikey=61
seq_length=12
seq_position=11
pitch_keycenter=61

<region>
sample=..\Samples\f\db5_f_rr4.wav
lokey=61
hikey=61
seq_length=12
seq_position=10
pitch_keycenter=61

<region>
sample=..\Samples\f\db5_f_rr3.wav
lokey=61
hikey=61
seq_length=12
seq_position=9
pitch_keycenter=61

<region>
sample=..\Samples\f\db5_f_rr2.wav
lokey=61
hikey=61
seq_length=12
seq_position=8
pitch_keycenter=61

<region>
sample=..\Samples\f\db5_f_rr1.wav
lokey=61
hikey=61
seq_length=12
seq_position=7
pitch_keycenter=61

<region>
sample=..\Samples\f\d5_f_rr6.wav
lokey=62
hikey=62
seq_length=12
seq_position=6
pitch_keycenter=62

<region>
sample=..\Samples\f\d5_f_rr5.wav
lokey=62
hikey=62
seq_length=12
seq_position=5
pitch_keycenter=62

<region>
sample=..\Samples\f\d5_f_rr4.wav
lokey=62
hikey=62
seq_length=12
seq_position=4
pitch_keycenter=62

<region>
sample=..\Samples\f\d5_f_rr3.wav
lokey=62
hikey=62
seq_length=12
seq_position=3
pitch_keycenter=62

<region>
sample=..\Samples\f\d5_f_rr2.wav
lokey=62
hikey=62
seq_length=12
seq_position=2
pitch_keycenter=62

<region>
sample=..\Samples\f\d5_f_rr1.wav
lokey=62
hikey=62
seq_length=12
pitch_keycenter=62

<region>
sample=..\Samples\f\d5_f_rr6.wav
lokey=62
hikey=62
seq_length=12
seq_position=12
pitch_keycenter=62

<region>
sample=..\Samples\f\d5_f_rr5.wav
lokey=62
hikey=62
seq_length=12
seq_position=11
pitch_keycenter=62

<region>
sample=..\Samples\f\d5_f_rr4.wav
lokey=62
hikey=62
seq_length=12
seq_position=10
pitch_keycenter=62

<region>
sample=..\Samples\f\d5_f_rr3.wav
lokey=62
hikey=62
seq_length=12
seq_position=9
pitch_keycenter=62

<region>
sample=..\Samples\f\d5_f_rr2.wav
lokey=62
hikey=62
seq_length=12
seq_position=8
pitch_keycenter=62

<region>
sample=..\Samples\f\d5_f_rr1.wav
lokey=62
hikey=62
seq_length=12
seq_position=7
pitch_keycenter=62

<region>
sample=..\Samples\f\eb5_f_rr6.wav
lokey=63
hikey=63
seq_length=12
seq_position=6
pitch_keycenter=63

<region>
sample=..\Samples\f\eb5_f_rr5.wav
lokey=63
hikey=63
seq_length=12
seq_position=5
pitch_keycenter=63

<region>
sample=..\Samples\f\eb5_f_rr4.wav
lokey=63
hikey=63
seq_length=12
seq_position=4
pitch_keycenter=63

<region>
sample=..\Samples\f\eb5_f_rr3.wav
lokey=63
hikey=63
seq_length=12
seq_position=3
pitch_keycenter=63

<region>
sample=..\Samples\f\eb5_f_rr2.wav
lokey=63
hikey=63
seq_length=12
seq_position=2
pitch_keycenter=63

<region>
sample=..\Samples\f\eb5_f_rr1.wav
lokey=63
hikey=63
seq_length=12
pitch_keycenter=63

<region>
sample=..\Samples\f\eb5_f_rr6.wav
lokey=63
hikey=63
seq_length=12
seq_position=12
pitch_keycenter=63

<region>
sample=..\Samples\f\eb5_f_rr5.wav
lokey=63
hikey=63
seq_length=12
seq_position=11
pitch_keycenter=63

<region>
sample=..\Samples\f\eb5_f_rr4.wav
lokey=63
hikey=63
seq_length=12
seq_position=10
pitch_keycenter=63

<region>
sample=..\Samples\f\eb5_f_rr3.wav
lokey=63
hikey=63
seq_length=12
seq_position=9
pitch_keycenter=63

<region>
sample=..\Samples\f\eb5_f_rr2.wav
lokey=63
hikey=63
seq_length=12
seq_position=8
pitch_keycenter=63

<region>
sample=..\Samples\f\eb5_f_rr1.wav
lokey=63
hikey=63
seq_length=12
seq_position=7
pitch_keycenter=63

<region>
sample=..\Samples\f\e5_f_rr6.wav
lokey=64
hikey=64
seq_length=12
seq_position=6
pitch_keycenter=64

<region>
sample=..\Samples\f\e5_f_rr5.wav
lokey=64
hikey=64
seq_length=12
seq_position=5
pitch_keycenter=64

<region>
sample=..\Samples\f\e5_f_rr4.wav
lokey=64
hikey=64
seq_length=12
seq_position=4
pitch_keycenter=64

<region>
sample=..\Samples\f\e5_f_rr3.wav
lokey=64
hikey=64
seq_length=12
seq_position=3
pitch_keycenter=64

<region>
sample=..\Samples\f\e5_f_rr2.wav
lokey=64
hikey=64
seq_length=12
seq_position=2
pitch_keycenter=64

<region>
sample=..\Samples\f\e5_f_rr1.wav
lokey=64
hikey=64
seq_length=12
pitch_keycenter=64

<region>
sample=..\Samples\f\e5_f_rr6.wav
lokey=64
hikey=64
seq_length=12
seq_position=12
pitch_keycenter=64

<region>
sample=..\Samples\f\e5_f_rr5.wav
lokey=64
hikey=64
seq_length=12
seq_position=11
pitch_keycenter=64

<region>
sample=..\Samples\f\e5_f_rr4.wav
lokey=64
hikey=64
seq_length=12
seq_position=10
pitch_keycenter=64

<region>
sample=..\Samples\f\e5_f_rr3.wav
lokey=64
hikey=64
seq_length=12
seq_position=9
pitch_keycenter=64

<region>
sample=..\Samples\f\e5_f_rr2.wav
lokey=64
hikey=64
seq_length=12
seq_position=8
pitch_keycenter=64

<region>
sample=..\Samples\f\e5_f_rr1.wav
lokey=64
hikey=64
seq_length=12
seq_position=7
pitch_keycenter=64

<region>
sample=..\Samples\f\f5_f_rr6.wav
lokey=65
hikey=65
seq_length=12
seq_position=6
pitch_keycenter=65

<region>
sample=..\Samples\f\f5_f_rr5.wav
lokey=65
hikey=65
seq_length=12
seq_position=5
pitch_keycenter=65

<region>
sample=..\Samples\f\f5_f_rr4.wav
lokey=65
hikey=65
seq_length=12
seq_position=4
pitch_keycenter=65

<region>
sample=..\Samples\f\f5_f_rr3.wav
lokey=65
hikey=65
seq_length=12
seq_position=3
pitch_keycenter=65

<region>
sample=..\Samples\f\f5_f_rr2.wav
lokey=65
hikey=65
seq_length=12
seq_position=2
pitch_keycenter=65

<region>
sample=..\Samples\f\f5_f_rr1.wav
lokey=65
hikey=65
seq_length=12
pitch_keycenter=65

<region>
sample=..\Samples\f\f5_f_rr6.wav
lokey=65
hikey=65
seq_length=12
seq_position=12
pitch_keycenter=65

<region>
sample=..\Samples\f\f5_f_rr5.wav
lokey=65
hikey=65
seq_length=12
seq_position=11
pitch_keycenter=65

<region>
sample=..\Samples\f\f5_f_rr4.wav
lokey=65
hikey=65
seq_length=12
seq_position=10
pitch_keycenter=65

<region>
sample=..\Samples\f\f5_f_rr3.wav
lokey=65
hikey=65
seq_length=12
seq_position=9
pitch_keycenter=65

<region>
sample=..\Samples\f\f5_f_rr2.wav
lokey=65
hikey=65
seq_length=12
seq_position=8
pitch_keycenter=65

<region>
sample=..\Samples\f\f5_f_rr1.wav
lokey=65
hikey=65
seq_length=12
seq_position=7
pitch_keycenter=65
